<mxfile host="Electron" modified="2024-02-28T16:35:27.788Z" agent="Mozilla/5.0 (Windows NT 10.0; Win64; x64) AppleWebKit/537.36 (KHTML, like Gecko) draw.io/23.1.5 Chrome/120.0.6099.109 Electron/28.1.0 Safari/537.36" etag="aDbUM5xjsMZFuSb1GyT5" version="23.1.5" type="device" pages="2">
  <diagram name="Page-1" id="SQHprDfSTZKvVdDAGZBl">
    <mxGraphModel dx="2393" dy="1338" grid="1" gridSize="10" guides="1" tooltips="1" connect="1" arrows="1" fold="1" page="0" pageScale="1" pageWidth="850" pageHeight="1100" math="0" shadow="0">
      <root>
        <mxCell id="0" />
        <mxCell id="1" parent="0" />
        <mxCell id="e7pb0ASpQ5ocscCcJqfW-1" value="&lt;b style=&quot;font-size: 12px;&quot;&gt;&amp;lt;&amp;lt;interface&amp;gt;&amp;gt;&lt;br style=&quot;font-size: 12px;&quot;&gt;&lt;/b&gt;&lt;b style=&quot;font-size: 12px;&quot;&gt;IDigOut&lt;br style=&quot;font-size: 12px;&quot;&gt;&lt;/b&gt;&lt;hr style=&quot;text-align: left; font-size: 12px;&quot;&gt;&lt;font style=&quot;background-color: initial; font-size: 12px;&quot;&gt;&lt;div style=&quot;text-align: left; font-size: 12px;&quot;&gt;&lt;span style=&quot;background-color: initial; font-size: 12px;&quot;&gt;void drive_output(bool on);&lt;/span&gt;&lt;/div&gt;&lt;div style=&quot;text-align: left; font-size: 12px;&quot;&gt;&lt;font style=&quot;background-color: initial; font-size: 12px;&quot;&gt;&lt;span style=&quot;background-color: initial; font-size: 12px;&quot;&gt;void toggle(void);&lt;/span&gt;&lt;/font&gt;&lt;/div&gt;&lt;div style=&quot;text-align: left; font-size: 12px;&quot;&gt;&lt;font style=&quot;background-color: initial; font-size: 12px;&quot;&gt;&lt;span style=&quot;background-color: initial; font-size: 12px;&quot;&gt;bool get_output(void);&lt;/span&gt;&lt;/font&gt;&lt;/div&gt;&lt;/font&gt;" style="rounded=0;whiteSpace=wrap;html=1;hachureGap=4;fontFamily=Courier New;fontSize=12;dashed=1;dashPattern=12 12;verticalAlign=top;" vertex="1" parent="1">
          <mxGeometry x="340" y="-70" width="220" height="110" as="geometry" />
        </mxCell>
        <mxCell id="e7pb0ASpQ5ocscCcJqfW-2" style="edgeStyle=none;shape=connector;rounded=0;orthogonalLoop=1;jettySize=auto;html=1;exitX=0.5;exitY=0;exitDx=0;exitDy=0;entryX=0.5;entryY=1;entryDx=0;entryDy=0;labelBackgroundColor=default;strokeColor=default;align=center;verticalAlign=middle;fontFamily=Helvetica;fontSize=12;fontColor=default;endArrow=block;endFill=0;dashed=1;endSize=12;strokeWidth=2;" edge="1" parent="1" source="e7pb0ASpQ5ocscCcJqfW-12" target="e7pb0ASpQ5ocscCcJqfW-1">
          <mxGeometry relative="1" as="geometry">
            <mxPoint x="355" y="400" as="sourcePoint" />
            <mxPoint x="258.75" y="340" as="targetPoint" />
          </mxGeometry>
        </mxCell>
        <mxCell id="e7pb0ASpQ5ocscCcJqfW-3" value="&lt;b style=&quot;font-size: 12px;&quot;&gt;&amp;lt;&amp;lt;interface&amp;gt;&amp;gt;&lt;br style=&quot;font-size: 12px;&quot;&gt;&lt;/b&gt;&lt;b style=&quot;font-size: 12px;&quot;&gt;IDigIn&lt;br style=&quot;font-size: 12px;&quot;&gt;&lt;/b&gt;&lt;hr style=&quot;text-align: left; font-size: 12px;&quot;&gt;&lt;font style=&quot;text-align: left; background-color: initial; font-size: 12px;&quot;&gt;&lt;span style=&quot;background-color: initial; font-size: 12px;&quot;&gt;bool read_input(void);&lt;/span&gt;&lt;br style=&quot;font-size: 12px;&quot;&gt;&lt;/font&gt;" style="rounded=0;whiteSpace=wrap;html=1;hachureGap=4;fontFamily=Courier New;fontSize=12;dashed=1;dashPattern=12 12;verticalAlign=top;" vertex="1" parent="1">
          <mxGeometry x="-120" y="-40" width="192.5" height="80" as="geometry" />
        </mxCell>
        <mxCell id="e7pb0ASpQ5ocscCcJqfW-4" style="shape=connector;rounded=0;orthogonalLoop=1;jettySize=auto;html=1;exitX=0.25;exitY=0;exitDx=0;exitDy=0;entryX=0.75;entryY=1;entryDx=0;entryDy=0;dashed=1;labelBackgroundColor=default;strokeColor=default;strokeWidth=2;align=center;verticalAlign=middle;fontFamily=Helvetica;fontSize=12;fontColor=default;endArrow=block;endFill=0;endSize=12;" edge="1" parent="1" source="e7pb0ASpQ5ocscCcJqfW-15" target="e7pb0ASpQ5ocscCcJqfW-3">
          <mxGeometry relative="1" as="geometry" />
        </mxCell>
        <mxCell id="e7pb0ASpQ5ocscCcJqfW-5" style="shape=connector;rounded=0;orthogonalLoop=1;jettySize=auto;html=1;exitX=0.75;exitY=0;exitDx=0;exitDy=0;entryX=0.25;entryY=1;entryDx=0;entryDy=0;dashed=1;labelBackgroundColor=default;strokeColor=default;strokeWidth=2;align=center;verticalAlign=middle;fontFamily=Helvetica;fontSize=12;fontColor=default;endArrow=block;endFill=0;endSize=12;" edge="1" parent="1" source="e7pb0ASpQ5ocscCcJqfW-15" target="e7pb0ASpQ5ocscCcJqfW-1">
          <mxGeometry relative="1" as="geometry" />
        </mxCell>
        <mxCell id="e7pb0ASpQ5ocscCcJqfW-6" style="edgeStyle=none;shape=connector;rounded=0;orthogonalLoop=1;jettySize=auto;html=1;exitX=0.75;exitY=0;exitDx=0;exitDy=0;entryX=0.25;entryY=1;entryDx=0;entryDy=0;dashed=1;labelBackgroundColor=default;strokeColor=default;strokeWidth=2;align=center;verticalAlign=middle;fontFamily=Helvetica;fontSize=12;fontColor=default;endArrow=block;endFill=0;endSize=12;" edge="1" parent="1" source="e7pb0ASpQ5ocscCcJqfW-7" target="e7pb0ASpQ5ocscCcJqfW-15">
          <mxGeometry relative="1" as="geometry" />
        </mxCell>
        <mxCell id="e7pb0ASpQ5ocscCcJqfW-7" value="&lt;b style=&quot;font-size: 12px;&quot;&gt;&amp;lt;&amp;lt;interface&amp;gt;&amp;gt;&lt;br style=&quot;font-size: 12px;&quot;&gt;IGpio&lt;br style=&quot;font-size: 12px;&quot;&gt;&lt;/b&gt;&lt;hr style=&quot;text-align: left; font-size: 12px;&quot;&gt;&lt;div style=&quot;text-align: left; font-size: 12px;&quot;&gt;&lt;div style=&quot;font-size: 12px;&quot;&gt;bool read_input(void);&lt;/div&gt;&lt;div style=&quot;font-size: 12px;&quot;&gt;&lt;hr style=&quot;font-size: 12px;&quot;&gt;&lt;/div&gt;&lt;div style=&quot;font-size: 12px;&quot;&gt;&lt;span style=&quot;background-color: initial; font-size: 12px;&quot;&gt;void set_state(bool on);&lt;/span&gt;&lt;/div&gt;&lt;/div&gt;&lt;div style=&quot;text-align: left; font-size: 12px;&quot;&gt;&lt;font style=&quot;background-color: initial; font-size: 12px;&quot;&gt;&lt;span style=&quot;background-color: initial; font-size: 12px;&quot;&gt;void toggle(void);&lt;/span&gt;&lt;/font&gt;&lt;/div&gt;&lt;div style=&quot;text-align: left; font-size: 12px;&quot;&gt;&lt;hr style=&quot;font-size: 12px;&quot;&gt;&lt;/div&gt;&lt;div style=&quot;text-align: left; font-size: 12px;&quot;&gt;&lt;span style=&quot;background-color: initial; font-size: 12px;&quot;&gt;bool enable_pullup(void);&lt;/span&gt;&lt;/div&gt;&lt;div style=&quot;text-align: left; font-size: 12px;&quot;&gt;bool enable_pulldown(void);&lt;span style=&quot;background-color: initial; font-size: 12px;&quot;&gt;&lt;br style=&quot;font-size: 12px;&quot;&gt;&lt;/span&gt;&lt;/div&gt;" style="rounded=0;whiteSpace=wrap;html=1;hachureGap=4;fontFamily=Courier New;fontSize=12;dashed=1;verticalAlign=top;dashPattern=12 12;" vertex="1" parent="1">
          <mxGeometry x="-180" y="350" width="240" height="170" as="geometry" />
        </mxCell>
        <mxCell id="e7pb0ASpQ5ocscCcJqfW-8" style="edgeStyle=none;shape=connector;rounded=0;orthogonalLoop=1;jettySize=auto;html=1;exitX=0.75;exitY=0;exitDx=0;exitDy=0;entryX=0.25;entryY=1;entryDx=0;entryDy=0;dashed=1;labelBackgroundColor=default;strokeColor=default;strokeWidth=2;align=center;verticalAlign=middle;fontFamily=Helvetica;fontSize=12;fontColor=default;endArrow=block;endFill=0;endSize=12;" edge="1" parent="1" source="e7pb0ASpQ5ocscCcJqfW-9" target="e7pb0ASpQ5ocscCcJqfW-7">
          <mxGeometry relative="1" as="geometry" />
        </mxCell>
        <mxCell id="e7pb0ASpQ5ocscCcJqfW-9" value="&lt;b style=&quot;font-size: 12px;&quot;&gt;Stm32Gpio&lt;br style=&quot;font-size: 12px;&quot;&gt;&lt;/b&gt;&lt;hr style=&quot;text-align: left; font-size: 12px;&quot;&gt;&lt;div style=&quot;text-align: left; font-size: 12px;&quot;&gt;&lt;div style=&quot;font-size: 12px;&quot;&gt;&lt;div style=&quot;font-size: 12px;&quot;&gt;&lt;div style=&quot;font-size: 12px;&quot;&gt;bool read_state(void);&lt;/div&gt;&lt;div style=&quot;font-size: 12px;&quot;&gt;&lt;hr style=&quot;font-size: 12px;&quot;&gt;&lt;/div&gt;&lt;div style=&quot;font-size: 12px;&quot;&gt;void set_state(bool on);&lt;br style=&quot;font-size: 12px;&quot;&gt;&lt;/div&gt;&lt;div style=&quot;font-size: 12px;&quot;&gt;&lt;span style=&quot;background-color: initial; font-size: 12px;&quot;&gt;void toggle(void);&lt;/span&gt;&lt;br style=&quot;font-size: 12px;&quot;&gt;&lt;/div&gt;&lt;/div&gt;&lt;div style=&quot;font-size: 12px;&quot;&gt;&lt;hr style=&quot;font-size: 12px;&quot;&gt;&lt;/div&gt;&lt;div style=&quot;font-size: 12px;&quot;&gt;&lt;span style=&quot;background-color: initial; font-size: 12px;&quot;&gt;bool enable_pullup(void);&lt;/span&gt;&lt;/div&gt;&lt;div style=&quot;font-size: 12px;&quot;&gt;bool enable_pulldown(void);&lt;/div&gt;&lt;/div&gt;&lt;div style=&quot;font-size: 12px;&quot;&gt;&lt;hr style=&quot;font-size: 12px;&quot;&gt;stm32 stuff...&lt;/div&gt;&lt;/div&gt;" style="rounded=0;whiteSpace=wrap;html=1;hachureGap=4;fontFamily=Courier New;fontSize=12;verticalAlign=top;" vertex="1" parent="1">
          <mxGeometry x="-350" y="610" width="231" height="190" as="geometry" />
        </mxCell>
        <mxCell id="e7pb0ASpQ5ocscCcJqfW-10" style="edgeStyle=none;shape=connector;rounded=0;orthogonalLoop=1;jettySize=auto;html=1;exitX=0.25;exitY=0;exitDx=0;exitDy=0;entryX=0.75;entryY=1;entryDx=0;entryDy=0;dashed=1;labelBackgroundColor=default;strokeColor=default;strokeWidth=2;align=center;verticalAlign=middle;fontFamily=Helvetica;fontSize=12;fontColor=default;endArrow=block;endFill=0;endSize=12;" edge="1" parent="1" source="e7pb0ASpQ5ocscCcJqfW-11" target="e7pb0ASpQ5ocscCcJqfW-7">
          <mxGeometry relative="1" as="geometry" />
        </mxCell>
        <mxCell id="e7pb0ASpQ5ocscCcJqfW-11" value="&lt;b style=&quot;font-size: 12px;&quot;&gt;AvrGpio&lt;br style=&quot;font-size: 12px;&quot;&gt;&lt;/b&gt;&lt;hr style=&quot;text-align: left; font-size: 12px;&quot;&gt;&lt;div style=&quot;text-align: left; font-size: 12px;&quot;&gt;&lt;div style=&quot;font-size: 12px;&quot;&gt;&lt;div style=&quot;font-size: 12px;&quot;&gt;&lt;div style=&quot;font-size: 12px;&quot;&gt;bool read_state(void);&lt;/div&gt;&lt;div style=&quot;font-size: 12px;&quot;&gt;&lt;hr style=&quot;font-size: 12px;&quot;&gt;&lt;/div&gt;&lt;div style=&quot;font-size: 12px;&quot;&gt;void set_state(bool on);&lt;br style=&quot;font-size: 12px;&quot;&gt;&lt;/div&gt;&lt;div style=&quot;font-size: 12px;&quot;&gt;&lt;span style=&quot;background-color: initial; font-size: 12px;&quot;&gt;void toggle(void);&lt;/span&gt;&lt;br style=&quot;font-size: 12px;&quot;&gt;&lt;/div&gt;&lt;/div&gt;&lt;div style=&quot;font-size: 12px;&quot;&gt;&lt;hr style=&quot;font-size: 12px;&quot;&gt;&lt;/div&gt;&lt;div style=&quot;font-size: 12px;&quot;&gt;&lt;span style=&quot;background-color: initial; font-size: 12px;&quot;&gt;bool enable_pullup(void);&lt;/span&gt;&lt;/div&gt;&lt;div style=&quot;font-size: 12px;&quot;&gt;bool enable_pulldown(void);&lt;/div&gt;&lt;/div&gt;&lt;div style=&quot;font-size: 12px;&quot;&gt;&lt;hr style=&quot;font-size: 12px;&quot;&gt;avr stuff...&lt;/div&gt;&lt;/div&gt;" style="rounded=0;whiteSpace=wrap;html=1;hachureGap=4;fontFamily=Courier New;fontSize=12;verticalAlign=top;" vertex="1" parent="1">
          <mxGeometry y="610" width="221" height="180" as="geometry" />
        </mxCell>
        <mxCell id="e7pb0ASpQ5ocscCcJqfW-12" value="&lt;b style=&quot;font-size: 12px;&quot;&gt;SpiDigOut&lt;br style=&quot;font-size: 12px;&quot;&gt;&lt;/b&gt;&lt;hr style=&quot;text-align: left; font-size: 12px;&quot;&gt;&lt;div style=&quot;text-align: left; font-size: 12px;&quot;&gt;&lt;div style=&quot;font-size: 12px;&quot;&gt;&lt;div style=&quot;font-size: 12px;&quot;&gt;&lt;div style=&quot;font-size: 12px;&quot;&gt;&lt;/div&gt;&lt;div style=&quot;font-size: 12px;&quot;&gt;void set_state(bool on);&lt;br style=&quot;font-size: 12px;&quot;&gt;&lt;/div&gt;&lt;div style=&quot;font-size: 12px;&quot;&gt;&lt;span style=&quot;background-color: initial; font-size: 12px;&quot;&gt;void toggle(void);&lt;/span&gt;&lt;br style=&quot;font-size: 12px;&quot;&gt;&lt;/div&gt;&lt;/div&gt;&lt;div style=&quot;font-size: 12px;&quot;&gt;bool get_output(void);&lt;span style=&quot;background-color: initial; font-size: 12px;&quot;&gt;&lt;br style=&quot;font-size: 12px;&quot;&gt;&lt;/span&gt;&lt;/div&gt;&lt;div style=&quot;font-size: 12px;&quot;&gt;&lt;hr style=&quot;font-size: 12px;&quot;&gt;&lt;/div&gt;&lt;div style=&quot;font-size: 12px;&quot;&gt;&lt;/div&gt;&lt;/div&gt;&lt;div style=&quot;font-size: 12px;&quot;&gt;bool desired_output_state;&lt;/div&gt;&lt;/div&gt;" style="rounded=0;whiteSpace=wrap;html=1;hachureGap=4;fontFamily=Courier New;fontSize=12;verticalAlign=top;" vertex="1" parent="1">
          <mxGeometry x="332" y="130" width="208" height="120" as="geometry" />
        </mxCell>
        <mxCell id="e7pb0ASpQ5ocscCcJqfW-13" value="&lt;b style=&quot;font-size: 12px;&quot;&gt;SpiDigIn&lt;br style=&quot;font-size: 12px;&quot;&gt;&lt;/b&gt;&lt;hr style=&quot;text-align: left; font-size: 12px;&quot;&gt;&lt;div style=&quot;text-align: left; font-size: 12px;&quot;&gt;&lt;div style=&quot;font-size: 12px;&quot;&gt;&lt;div style=&quot;font-size: 12px;&quot;&gt;&lt;div style=&quot;font-size: 12px;&quot;&gt;&lt;/div&gt;&lt;div style=&quot;font-size: 12px;&quot;&gt;bool read_input(void);&lt;br style=&quot;font-size: 12px;&quot;&gt;&lt;/div&gt;&lt;div style=&quot;font-size: 12px;&quot;&gt;&lt;/div&gt;&lt;/div&gt;&lt;div style=&quot;font-size: 12px;&quot;&gt;&lt;/div&gt;&lt;/div&gt;&lt;div style=&quot;font-size: 12px;&quot;&gt;&lt;hr style=&quot;font-size: 12px;&quot;&gt;&lt;/div&gt;&lt;div style=&quot;font-size: 12px;&quot;&gt;&lt;div style=&quot;font-size: 12px;&quot;&gt;bool last_read;&lt;/div&gt;&lt;/div&gt;&lt;/div&gt;" style="rounded=0;whiteSpace=wrap;html=1;hachureGap=4;fontFamily=Courier New;fontSize=12;verticalAlign=top;" vertex="1" parent="1">
          <mxGeometry x="-190" y="120" width="180" height="90" as="geometry" />
        </mxCell>
        <mxCell id="e7pb0ASpQ5ocscCcJqfW-14" style="edgeStyle=none;shape=connector;rounded=0;orthogonalLoop=1;jettySize=auto;html=1;exitX=0.5;exitY=0;exitDx=0;exitDy=0;entryX=0.124;entryY=1.029;entryDx=0;entryDy=0;entryPerimeter=0;dashed=1;labelBackgroundColor=default;strokeColor=default;strokeWidth=2;align=center;verticalAlign=middle;fontFamily=Helvetica;fontSize=12;fontColor=default;endArrow=block;endFill=0;endSize=12;" edge="1" parent="1" source="e7pb0ASpQ5ocscCcJqfW-13" target="e7pb0ASpQ5ocscCcJqfW-3">
          <mxGeometry relative="1" as="geometry" />
        </mxCell>
        <mxCell id="e7pb0ASpQ5ocscCcJqfW-15" value="&lt;b style=&quot;font-size: 12px;&quot;&gt;&amp;lt;&amp;lt;interface&amp;gt;&amp;gt;&lt;br style=&quot;font-size: 12px;&quot;&gt;&lt;/b&gt;&lt;b style=&quot;font-size: 12px;&quot;&gt;IDigIo&lt;br style=&quot;font-size: 12px;&quot;&gt;&lt;/b&gt;&lt;hr style=&quot;text-align: left; font-size: 12px;&quot;&gt;&lt;div style=&quot;text-align: left; font-size: 12px;&quot;&gt;&lt;div style=&quot;font-size: 12px;&quot;&gt;&lt;div style=&quot;font-size: 12px;&quot;&gt;bool read_input(void);&lt;/div&gt;&lt;div style=&quot;font-size: 12px;&quot;&gt;&lt;hr style=&quot;font-size: 12px;&quot;&gt;&lt;/div&gt;&lt;div style=&quot;font-size: 12px;&quot;&gt;void set_state(bool on);&lt;/div&gt;&lt;/div&gt;&lt;div style=&quot;font-size: 12px;&quot;&gt;&lt;font style=&quot;background-color: initial; font-size: 12px;&quot;&gt;&lt;span style=&quot;background-color: initial; font-size: 12px;&quot;&gt;void toggle(void);&lt;/span&gt;&lt;/font&gt;&lt;/div&gt;&lt;div style=&quot;font-size: 12px;&quot;&gt;&lt;font style=&quot;background-color: initial; font-size: 12px;&quot;&gt;&lt;span style=&quot;background-color: initial; font-size: 12px;&quot;&gt;&lt;br style=&quot;font-size: 12px;&quot;&gt;&lt;/span&gt;&lt;/font&gt;&lt;/div&gt;&lt;/div&gt;" style="rounded=0;whiteSpace=wrap;html=1;hachureGap=4;fontFamily=Courier New;fontSize=12;dashed=1;dashPattern=12 12;verticalAlign=top;" vertex="1" parent="1">
          <mxGeometry x="50" y="130" width="200" height="130" as="geometry" />
        </mxCell>
        <mxCell id="e7pb0ASpQ5ocscCcJqfW-16" style="edgeStyle=none;shape=connector;rounded=0;orthogonalLoop=1;jettySize=auto;html=1;exitX=0.25;exitY=0;exitDx=0;exitDy=0;entryX=0.75;entryY=1;entryDx=0;entryDy=0;dashed=1;labelBackgroundColor=default;strokeColor=default;strokeWidth=2;align=center;verticalAlign=middle;fontFamily=Helvetica;fontSize=12;fontColor=default;endArrow=block;endFill=0;endSize=12;" edge="1" parent="1" source="e7pb0ASpQ5ocscCcJqfW-17" target="e7pb0ASpQ5ocscCcJqfW-15">
          <mxGeometry relative="1" as="geometry" />
        </mxCell>
        <mxCell id="e7pb0ASpQ5ocscCcJqfW-17" value="&lt;b style=&quot;font-size: 12px;&quot;&gt;I2cDigIo&lt;br style=&quot;font-size: 12px;&quot;&gt;&lt;/b&gt;&lt;hr style=&quot;text-align: left; font-size: 12px;&quot;&gt;&lt;div style=&quot;text-align: left; font-size: 12px;&quot;&gt;&lt;div style=&quot;font-size: 12px;&quot;&gt;&lt;div style=&quot;font-size: 12px;&quot;&gt;&lt;div style=&quot;font-size: 12px;&quot;&gt;&lt;/div&gt;&lt;div style=&quot;font-size: 12px;&quot;&gt;&lt;div style=&quot;font-size: 12px;&quot;&gt;&lt;div style=&quot;font-size: 12px;&quot;&gt;bool read_input(void);&lt;/div&gt;&lt;div style=&quot;font-size: 12px;&quot;&gt;&lt;hr style=&quot;font-size: 12px;&quot;&gt;&lt;/div&gt;&lt;div style=&quot;font-size: 12px;&quot;&gt;void set_state(bool on);&lt;/div&gt;&lt;/div&gt;&lt;div style=&quot;font-size: 12px;&quot;&gt;&lt;font style=&quot;background-color: initial; font-size: 12px;&quot;&gt;&lt;span style=&quot;background-color: initial; font-size: 12px;&quot;&gt;void toggle(void);&lt;/span&gt;&lt;/font&gt;&lt;/div&gt;&lt;/div&gt;&lt;/div&gt;&lt;div style=&quot;font-size: 12px;&quot;&gt;&lt;hr style=&quot;font-size: 12px;&quot;&gt;&lt;/div&gt;&lt;div style=&quot;font-size: 12px;&quot;&gt;&lt;/div&gt;&lt;/div&gt;&lt;div style=&quot;font-size: 12px;&quot;&gt;stuff...&lt;/div&gt;&lt;/div&gt;" style="rounded=0;whiteSpace=wrap;html=1;hachureGap=4;fontFamily=Courier New;fontSize=12;verticalAlign=top;" vertex="1" parent="1">
          <mxGeometry x="180" y="365" width="190" height="140" as="geometry" />
        </mxCell>
        <mxCell id="e7pb0ASpQ5ocscCcJqfW-35" style="edgeStyle=none;rounded=0;orthogonalLoop=1;jettySize=auto;html=1;exitX=0.75;exitY=0;exitDx=0;exitDy=0;entryX=0;entryY=1;entryDx=0;entryDy=0;dashed=1;strokeColor=default;strokeWidth=2;align=center;verticalAlign=middle;fontFamily=Helvetica;fontSize=12;fontColor=default;labelBackgroundColor=default;endArrow=block;endFill=0;endSize=12;" edge="1" parent="1" source="e7pb0ASpQ5ocscCcJqfW-36" target="e7pb0ASpQ5ocscCcJqfW-3">
          <mxGeometry relative="1" as="geometry" />
        </mxCell>
        <mxCell id="e7pb0ASpQ5ocscCcJqfW-36" value="&lt;b style=&quot;font-size: 12px;&quot;&gt;DigInInverter&lt;br style=&quot;font-size: 12px;&quot;&gt;&lt;/b&gt;&lt;hr style=&quot;text-align: left; font-size: 12px;&quot;&gt;&lt;font style=&quot;text-align: left; background-color: initial; font-size: 12px;&quot;&gt;&lt;div style=&quot;font-size: 12px;&quot;&gt;&lt;div style=&quot;font-size: 12px;&quot;&gt;&lt;div style=&quot;font-size: 12px;&quot;&gt;bool read_input(void);&lt;br style=&quot;font-size: 12px;&quot;&gt;&lt;/div&gt;&lt;div style=&quot;font-size: 12px;&quot;&gt;&lt;/div&gt;&lt;/div&gt;&lt;div style=&quot;font-size: 12px;&quot;&gt;&lt;/div&gt;&lt;/div&gt;&lt;div style=&quot;font-size: 12px;&quot;&gt;&lt;hr style=&quot;font-size: 12px;&quot;&gt;&lt;/div&gt;&lt;div style=&quot;font-size: 12px;&quot;&gt;IDigIn * real_digin;&lt;/div&gt;&lt;/font&gt;" style="rounded=0;whiteSpace=wrap;html=1;hachureGap=4;fontFamily=Courier New;fontSize=12;verticalAlign=top;strokeColor=default;align=center;fontColor=default;fillColor=default;" vertex="1" parent="1">
          <mxGeometry x="-410" y="120" width="180" height="100" as="geometry" />
        </mxCell>
        <mxCell id="e7pb0ASpQ5ocscCcJqfW-38" value="&lt;b style=&quot;font-size: 12px;&quot;&gt;IDigOutInverter&lt;/b&gt;&lt;b style=&quot;font-size: 12px;&quot;&gt;&lt;br style=&quot;font-size: 12px;&quot;&gt;&lt;/b&gt;&lt;hr style=&quot;text-align: left; font-size: 12px;&quot;&gt;&lt;div style=&quot;text-align: left; font-size: 12px;&quot;&gt;&lt;div style=&quot;font-size: 12px;&quot;&gt;&lt;div style=&quot;font-size: 12px;&quot;&gt;&lt;div style=&quot;font-size: 12px;&quot;&gt;&lt;/div&gt;&lt;div style=&quot;font-size: 12px;&quot;&gt;void set_state(bool on);&lt;br style=&quot;font-size: 12px;&quot;&gt;&lt;/div&gt;&lt;div style=&quot;font-size: 12px;&quot;&gt;&lt;span style=&quot;background-color: initial; font-size: 12px;&quot;&gt;void toggle(void);&lt;/span&gt;&lt;br style=&quot;font-size: 12px;&quot;&gt;&lt;/div&gt;&lt;/div&gt;&lt;div style=&quot;font-size: 12px;&quot;&gt;bool get_output(void);&lt;span style=&quot;background-color: initial; font-size: 12px;&quot;&gt;&lt;br style=&quot;font-size: 12px;&quot;&gt;&lt;/span&gt;&lt;/div&gt;&lt;div style=&quot;font-size: 12px;&quot;&gt;&lt;hr style=&quot;font-size: 12px;&quot;&gt;&lt;/div&gt;&lt;div style=&quot;font-size: 12px;&quot;&gt;&lt;/div&gt;&lt;/div&gt;&lt;div style=&quot;font-size: 12px;&quot;&gt;IDigOut * dout;&lt;/div&gt;&lt;/div&gt;" style="rounded=0;whiteSpace=wrap;html=1;hachureGap=4;fontFamily=Courier New;fontSize=12;verticalAlign=top;" vertex="1" parent="1">
          <mxGeometry x="590" y="130" width="200" height="120" as="geometry" />
        </mxCell>
        <mxCell id="e7pb0ASpQ5ocscCcJqfW-39" style="edgeStyle=none;rounded=0;orthogonalLoop=1;jettySize=auto;html=1;exitX=0.25;exitY=0;exitDx=0;exitDy=0;entryX=0.75;entryY=1;entryDx=0;entryDy=0;dashed=1;strokeColor=default;strokeWidth=2;align=center;verticalAlign=middle;fontFamily=Helvetica;fontSize=12;fontColor=default;labelBackgroundColor=default;endArrow=block;endFill=0;endSize=12;" edge="1" parent="1" source="e7pb0ASpQ5ocscCcJqfW-38" target="e7pb0ASpQ5ocscCcJqfW-1">
          <mxGeometry relative="1" as="geometry" />
        </mxCell>
      </root>
    </mxGraphModel>
  </diagram>
  <diagram id="0QGUAxmF6b4Vd_YSF9hV" name="notes">
    <mxGraphModel dx="2234" dy="1644" grid="1" gridSize="10" guides="1" tooltips="1" connect="1" arrows="1" fold="1" page="0" pageScale="1" pageWidth="850" pageHeight="1100" math="0" shadow="0">
      <root>
        <mxCell id="0" />
        <mxCell id="1" parent="0" />
        <mxCell id="d5WXvISdQU6r6wFA3HAB-1" value="&lt;span style=&quot;color: rgb(240, 240, 240); font-family: &amp;quot;Courier New&amp;quot;; font-size: 12px; font-style: normal; font-variant-ligatures: normal; font-variant-caps: normal; font-weight: 400; letter-spacing: normal; orphans: 2; text-align: left; text-indent: 0px; text-transform: none; widows: 2; word-spacing: 0px; -webkit-text-stroke-width: 0px; background-color: rgb(24, 20, 29); text-decoration-thickness: initial; text-decoration-style: initial; text-decoration-color: initial; float: none; display: inline !important;&quot;&gt;Should read_input() be === to get_state()?&lt;br style=&quot;font-size: 12px;&quot;&gt;- This would eliminate IDigOut need.&lt;br style=&quot;font-size: 12px;&quot;&gt;Could be done, but they are conceptually different.&lt;br style=&quot;font-size: 12px;&quot;&gt;The output&#39;s state can be read, but it isn&#39;t an input.&lt;br style=&quot;font-size: 12px;&quot;&gt;&lt;/span&gt;" style="text;whiteSpace=wrap;html=1;fontFamily=Helvetica;fontSize=12;fontColor=default;labelBackgroundColor=default;" vertex="1" parent="1">
          <mxGeometry x="-230" y="-390" width="670" height="130" as="geometry" />
        </mxCell>
        <mxCell id="d5WXvISdQU6r6wFA3HAB-2" value="&lt;span style=&quot;color: rgb(240, 240, 240); font-family: &amp;quot;Courier New&amp;quot;; font-size: 12px; font-style: normal; font-variant-ligatures: normal; font-variant-caps: normal; font-weight: 400; letter-spacing: normal; orphans: 2; text-align: left; text-indent: 0px; text-transform: none; widows: 2; word-spacing: 0px; -webkit-text-stroke-width: 0px; background-color: rgb(24, 20, 29); text-decoration-thickness: initial; text-decoration-style: initial; text-decoration-color: initial; float: none; display: inline !important;&quot;&gt;Where should inversion happen? In LED class where it can have active high/low setting?&lt;br style=&quot;font-size: 12px;&quot;&gt;&lt;br style=&quot;font-size: 12px;&quot;&gt;Actually could still be useful for a replacement part has inverted logic.&lt;br style=&quot;font-size: 12px;&quot;&gt;&lt;/span&gt;" style="text;whiteSpace=wrap;html=1;fontFamily=Helvetica;fontSize=12;fontColor=default;labelBackgroundColor=default;" vertex="1" parent="1">
          <mxGeometry x="270" y="-410" width="470" height="170" as="geometry" />
        </mxCell>
        <mxCell id="d5WXvISdQU6r6wFA3HAB-3" value="&lt;span style=&quot;color: rgb(240, 240, 240); font-family: &amp;quot;Courier New&amp;quot;; font-size: 12px; font-style: normal; font-variant-ligatures: normal; font-variant-caps: normal; font-weight: 400; letter-spacing: normal; orphans: 2; text-align: left; text-indent: 0px; text-transform: none; widows: 2; word-spacing: 0px; -webkit-text-stroke-width: 0px; background-color: rgb(24, 20, 29); text-decoration-thickness: initial; text-decoration-style: initial; text-decoration-color: initial; float: none; display: inline !important;&quot;&gt;Where should input inversion happen? In SwitchInput class?&lt;br style=&quot;font-size: 12px;&quot;&gt;&lt;br style=&quot;font-size: 12px;&quot;&gt;Could still be useful here for when a replacement part has inverted logic.&lt;br style=&quot;font-size: 12px;&quot;&gt;&lt;/span&gt;" style="text;whiteSpace=wrap;html=1;fontFamily=Helvetica;fontSize=12;fontColor=default;labelBackgroundColor=default;" vertex="1" parent="1">
          <mxGeometry x="-800" y="-380" width="470" height="140" as="geometry" />
        </mxCell>
      </root>
    </mxGraphModel>
  </diagram>
</mxfile>
